<?xml version="1.0" encoding="UTF-8"?>
<!-- CARTER — torn-paper edge symbols for masking sheet bottoms/tops. -->
<svg xmlns="http://www.w3.org/2000/svg" style="display:none">
  <defs>
    <symbol id="torn-bottom" viewBox="0 0 120 10" preserveAspectRatio="none">
      <path d="M0 0H120V4L114 8 108 3 101 9 94 4 87 8 80 3 73 9 66 4 59 8 52 3 45 9 38 4 31 8 24 3 17 9 10 4 3 8 0 5Z" fill="#000"/>
    </symbol>
    <symbol id="torn-top" viewBox="0 0 120 10" preserveAspectRatio="none">
      <path d="M0 10H120V6L114 2 108 7 101 1 94 6 87 2 80 7 73 1 66 6 59 2 52 7 45 1 38 6 31 2 24 7 17 1 10 6 3 2 0 5Z" fill="#000"/>
    </symbol>
  </defs>
</svg>
